HIERARCHY
ROOT Hips
{
	OFFSET -0.113297 88.952019 2.917459
	CHANNELS 6 Xposition Yposition Zposition Zrotation Yrotation Xrotation 
	JOINT Spine
	{
		OFFSET 0.000000 8.814246 -2.080107
		CHANNELS 3 Zrotation Yrotation Xrotation
		JOINT Spine1
		{
			OFFSET -0.000000 8.844141 0.000000
			CHANNELS 3 Zrotation Yrotation Xrotation
			JOINT Spine2
			{
				OFFSET 0.000000 11.682268 0.000000
				CHANNELS 3 Zrotation Yrotation Xrotation
				JOINT Spine3
				{
					OFFSET 0.000000 11.746700 -0.000000
					CHANNELS 3 Zrotation Yrotation Xrotation
					JOINT Neck
					{
						OFFSET -0.000000 17.658264 0.000000
						CHANNELS 3 Zrotation Yrotation Xrotation
						JOINT Neck1
						{
							OFFSET 0.000000 5.101515 -0.000000
							CHANNELS 3 Zrotation Yrotation Xrotation
							JOINT Head
							{
								OFFSET 0.000000 5.101515 0.000000
								CHANNELS 3 Zrotation Yrotation Xrotation
								JOINT HeadEnd
								{
									OFFSET -0.000000 11.655085 -0.000000
									CHANNELS 3 Zrotation Yrotation Xrotation
									End Site
									{
										OFFSET 0.000000 0.000000 0.000000
									}
								}
							}
						}
					}
					JOINT RightShoulder
					{
						OFFSET -2.625389 11.175210 0.000000
						CHANNELS 3 Zrotation Yrotation Xrotation
						JOINT RightArm
						{
							OFFSET -0.000000 10.434715 -0.000000
							CHANNELS 3 Zrotation Yrotation Xrotation
							JOINT RightForeArm
							{
								OFFSET 0.000000 29.628420 0.000000
								CHANNELS 3 Zrotation Yrotation Xrotation
								JOINT RightHand
								{
									OFFSET 0.000000 22.857611 0.000000
									CHANNELS 3 Zrotation Yrotation Xrotation
									JOINT RightHandThumb1
									{
										OFFSET -2.867323 3.959563 2.944291
										CHANNELS 3 Zrotation Yrotation Xrotation
										JOINT RightHandThumb2
										{
											OFFSET -0.000000 3.350399 0.000000
											CHANNELS 3 Zrotation Yrotation Xrotation
											JOINT RightHandThumb3
											{
												OFFSET -0.000000 3.756509 -0.000000
												CHANNELS 3 Zrotation Yrotation Xrotation
												JOINT RightHandThumb4
												{
													OFFSET 0.000000 3.147345 -0.000000
													CHANNELS 3 Zrotation Yrotation Xrotation
													End Site
													{
														OFFSET 0.000000 0.000000 0.000000
													}
												}
											}
										}
									}
									JOINT RightHandIndex1
									{
										OFFSET -0.086752 10.030893 2.345280
										CHANNELS 3 Zrotation Yrotation Xrotation
										JOINT RightHandIndex2
										{
											OFFSET 0.000000 4.061090 0.000000
											CHANNELS 3 Zrotation Yrotation Xrotation
											JOINT RightHandIndex3
											{
												OFFSET 0.000000 3.248873 -0.000000
												CHANNELS 3 Zrotation Yrotation Xrotation
												JOINT RightHandIndex4
												{
													OFFSET -0.000000 2.639709 0.000000
													CHANNELS 3 Zrotation Yrotation Xrotation
													End Site
													{
														OFFSET 0.000000 0.000000 0.000000
													}
												}
											}
										}
									}
									JOINT RightHandMiddle1
									{
										OFFSET 0.104102 9.502952 0.006768
										CHANNELS 3 Zrotation Yrotation Xrotation
										JOINT RightHandMiddle2
										{
											OFFSET -0.000000 4.568727 0.000000
											CHANNELS 3 Zrotation Yrotation Xrotation
											JOINT RightHandMiddle3
											{
												OFFSET 0.000000 3.654981 -0.000000
												CHANNELS 3 Zrotation Yrotation Xrotation
												JOINT RightHandMiddle4
												{
													OFFSET 0.000000 2.741236 -0.000000
													CHANNELS 3 Zrotation Yrotation Xrotation
													End Site
													{
														OFFSET 0.000000 0.000000 0.000000
													}
												}
											}
										}
									}
									JOINT RightHandRing1
									{
										OFFSET 0.086752 8.921708 -2.267442
										CHANNELS 3 Zrotation Yrotation Xrotation
										JOINT RightHandRing2
										{
											OFFSET -0.000000 4.061090 0.000000
											CHANNELS 3 Zrotation Yrotation Xrotation
											JOINT RightHandRing3
											{
												OFFSET -0.000000 3.654981 0.000000
												CHANNELS 3 Zrotation Yrotation Xrotation
												JOINT RightHandRing4
												{
													OFFSET -0.000000 2.741236 0.000000
													CHANNELS 3 Zrotation Yrotation Xrotation
													End Site
													{
														OFFSET 0.000000 0.000000 0.000000
													}
												}
											}
										}
									}
									JOINT RightHandPinky1
									{
										OFFSET -0.173504 7.976997 -4.467199
										CHANNELS 3 Zrotation Yrotation Xrotation
										JOINT RightHandPinky2
										{
											OFFSET -0.000000 3.350399 -0.000000
											CHANNELS 3 Zrotation Yrotation Xrotation
											JOINT RightHandPinky3
											{
												OFFSET 0.000000 2.842763 -0.000000
												CHANNELS 3 Zrotation Yrotation Xrotation
												JOINT RightHandPinky4
												{
													OFFSET -0.000000 2.639709 -0.000000
													CHANNELS 3 Zrotation Yrotation Xrotation
													End Site
													{
														OFFSET 0.000000 0.000000 0.000000
													}
												}
											}
										}
									}
									JOINT RightForeArmEnd
									{
										OFFSET 0.000000 0.000000 0.000000
										CHANNELS 3 Zrotation Yrotation Xrotation
										End Site
										{
											OFFSET 0.000000 0.000000 0.000000
										}
									}
								}
								JOINT RightArmEnd
								{
									OFFSET 0.000000 0.000000 0.000000
									CHANNELS 3 Zrotation Yrotation Xrotation
									End Site
									{
										OFFSET 0.000000 0.000000 0.000000
									}
								}
							}
						}
					}
					JOINT LeftShoulder
					{
						OFFSET 2.625389 11.175210 0.000000
						CHANNELS 3 Zrotation Yrotation Xrotation
						JOINT LeftArm
						{
							OFFSET 0.000000 10.813635 0.000000
							CHANNELS 3 Zrotation Yrotation Xrotation
							JOINT LeftForeArm
							{
								OFFSET 0.000000 28.724781 0.000000
								CHANNELS 3 Zrotation Yrotation Xrotation
								JOINT LeftHand
								{
									OFFSET 0.644384 25.716167 -0.328871
									CHANNELS 3 Zrotation Yrotation Xrotation
									JOINT LeftHandThumb1
									{
										OFFSET 2.867323 3.959563 2.944291
										CHANNELS 3 Zrotation Yrotation Xrotation
										JOINT LeftHandThumb2
										{
											OFFSET -0.000000 3.350399 -0.000000
											CHANNELS 3 Zrotation Yrotation Xrotation
											JOINT LeftHandThumb3
											{
												OFFSET -0.000000 3.756509 -0.000000
												CHANNELS 3 Zrotation Yrotation Xrotation
												JOINT LeftHandThumb4
												{
													OFFSET 0.000000 3.100000 0.000000
													CHANNELS 3 Zrotation Yrotation Xrotation
													End Site
													{
														OFFSET 0.000000 0.000000 0.000000
													}
												}
											}
										}
									}
									JOINT LeftHandIndex1
									{
										OFFSET 0.086752 10.030893 2.345280
										CHANNELS 3 Zrotation Yrotation Xrotation
										JOINT LeftHandIndex2
										{
											OFFSET 0.000000 4.061090 -0.000000
											CHANNELS 3 Zrotation Yrotation Xrotation
											JOINT LeftHandIndex3
											{
												OFFSET -0.000000 3.248873 -0.000000
												CHANNELS 3 Zrotation Yrotation Xrotation
												JOINT LeftHandIndex4
												{
													OFFSET -0.000000 2.639709 -0.000000
													CHANNELS 3 Zrotation Yrotation Xrotation
													End Site
													{
														OFFSET 0.000000 0.000000 0.000000
													}
												}
											}
										}
									}
									JOINT LeftHandMiddle1
									{
										OFFSET -0.104102 9.502952 0.006768
										CHANNELS 3 Zrotation Yrotation Xrotation
										JOINT LeftHandMiddle2
										{
											OFFSET 0.000000 4.568727 -0.000000
											CHANNELS 3 Zrotation Yrotation Xrotation
											JOINT LeftHandMiddle3
											{
												OFFSET 0.000000 3.654981 -0.000000
												CHANNELS 3 Zrotation Yrotation Xrotation
												JOINT LeftHandMiddle4
												{
													OFFSET -0.000000 2.741236 -0.000000
													CHANNELS 3 Zrotation Yrotation Xrotation
													End Site
													{
														OFFSET 0.000000 0.000000 0.000000
													}
												}
											}
										}
									}
									JOINT LeftHandRing1
									{
										OFFSET -0.086752 8.921708 -2.267442
										CHANNELS 3 Zrotation Yrotation Xrotation
										JOINT LeftHandRing2
										{
											OFFSET 0.000000 4.061090 0.000000
											CHANNELS 3 Zrotation Yrotation Xrotation
											JOINT LeftHandRing3
											{
												OFFSET -0.000000 3.654981 -0.000000
												CHANNELS 3 Zrotation Yrotation Xrotation
												JOINT LeftHandRing4
												{
													OFFSET 0.000000 2.741236 0.000000
													CHANNELS 3 Zrotation Yrotation Xrotation
													End Site
													{
														OFFSET 0.000000 0.000000 0.000000
													}
												}
											}
										}
									}
									JOINT LeftHandPinky1
									{
										OFFSET 0.173504 7.976997 -4.467199
										CHANNELS 3 Zrotation Yrotation Xrotation
										JOINT LeftHandPinky2
										{
											OFFSET 0.000000 3.350399 0.000000
											CHANNELS 3 Zrotation Yrotation Xrotation
											JOINT LeftHandPinky3
											{
												OFFSET 0.000000 2.842763 0.000000
												CHANNELS 3 Zrotation Yrotation Xrotation
												JOINT LeftHandPinky4
												{
													OFFSET -0.000000 2.639709 -0.000000
													CHANNELS 3 Zrotation Yrotation Xrotation
													End Site
													{
														OFFSET 0.000000 0.000000 0.000000
													}
												}
											}
										}
									}
									JOINT LeftForeArmEnd
									{
										OFFSET 0.000000 0.000000 0.000000
										CHANNELS 3 Zrotation Yrotation Xrotation
										End Site
										{
											OFFSET 0.000000 0.000000 0.000000
										}
									}
								}
								JOINT LeftArmEnd
								{
									OFFSET 0.000000 0.000000 0.000000
									CHANNELS 3 Zrotation Yrotation Xrotation
									End Site
									{
										OFFSET 0.000000 0.000000 0.000000
									}
								}
							}
						}
					}
				}
			}
		}
	}
	JOINT RightUpLeg
	{
		OFFSET -11.289943 0.000000 0.000000
		CHANNELS 3 Zrotation Yrotation Xrotation
		JOINT RightLeg
		{
			OFFSET -0.000000 -38.200325 0.000000
			CHANNELS 3 Zrotation Yrotation Xrotation
			JOINT RightFoot
			{
				OFFSET 0.000000 -39.900856 -0.000000
				CHANNELS 3 Zrotation Yrotation Xrotation
				JOINT RightToeBase
				{
					OFFSET -0.000000 -0.000000 15.261641
					CHANNELS 3 Zrotation Yrotation Xrotation
					JOINT RightToeBaseEnd
					{
						OFFSET 0.000000 -0.000000 7.370709
						CHANNELS 3 Zrotation Yrotation Xrotation
						End Site
						{
							OFFSET 0.000000 0.000000 0.000000
						}
					}
				}
				JOINT RightLegEnd
				{
					OFFSET 0.000000 0.000000 0.000000
					CHANNELS 3 Zrotation Yrotation Xrotation
					End Site
					{
						OFFSET 0.000000 0.000000 0.000000
					}
				}
			}
			JOINT RightUpLegEnd
			{
				OFFSET 0.000000 0.000000 0.000000
				CHANNELS 3 Zrotation Yrotation Xrotation
				End Site
				{
					OFFSET 0.000000 0.000000 0.000000
				}
			}
		}
	}
	JOINT LeftUpLeg
	{
		OFFSET 11.315661 0.000000 -0.000000
		CHANNELS 3 Zrotation Yrotation Xrotation
		JOINT LeftLeg
		{
			OFFSET -0.000000 -38.200325 0.000000
			CHANNELS 3 Zrotation Yrotation Xrotation
			JOINT LeftFoot
			{
				OFFSET 0.000000 -39.900856 -0.000000
				CHANNELS 3 Zrotation Yrotation Xrotation
				JOINT LeftToeBase
				{
					OFFSET -0.000000 0.000000 15.261641
					CHANNELS 3 Zrotation Yrotation Xrotation
					JOINT LeftToeBaseEnd
					{
						OFFSET 0.000000 -0.000000 7.539996
						CHANNELS 3 Zrotation Yrotation Xrotation
						End Site
						{
							OFFSET 0.000000 0.000000 0.000000
						}
					}
				}
				JOINT LeftLegEnd
				{
					OFFSET 0.000000 0.000000 0.000000
					CHANNELS 3 Zrotation Yrotation Xrotation
					End Site
					{
						OFFSET 0.000000 0.000000 0.000000
					}
				}
			}
			JOINT LeftUpLegEnd
			{
				OFFSET 0.000000 0.000000 0.000000
				CHANNELS 3 Zrotation Yrotation Xrotation
				End Site
				{
					OFFSET 0.000000 0.000000 0.000000
				}
			}
		}
	}
}
MOTION
Frames: 4
Frame Time: 0.016667
10.802115 86.923737 17.268675 0.836814 -6.193085 -12.942115 -1.999279 0.568258 9.355203 0.589346 0.412637 3.060422 1.012062 3.653167 7.144468 0.715474 1.750857 3.957863 -13.401527 8.131407 -1.004852 -0.154056 2.934886 -6.239210 -1.239039 0.368092 -16.588636 0.000000 0.000000 0.000000 83.651016 1.649662 12.520041 63.680077 -17.203230 4.282212 -1.164776 11.078134 99.476341 -18.623426 14.103387 1.624150 13.202485 -1.868429 38.773399 0.000001 -0.000022 -33.586159 -0.000032 0.000026 -23.326389 -0.000010 -0.000010 0.000012 27.963364 16.613949 -4.693422 18.778221 0.289376 -5.203306 18.902054 1.307433 -4.697571 0.000009 -0.000013 0.000001 29.158274 7.072353 -5.418819 20.101448 -0.452547 -2.179953 20.201818 0.482350 -1.781124 -0.000005 0.000050 0.000015 38.312469 -9.374254 -4.982585 25.299393 1.047321 3.168097 24.970539 -0.710064 2.414551 -0.000001 0.001594 -0.000014 43.806637 -26.041100 -5.750938 26.015999 1.192568 9.826407 25.813749 -2.321522 8.123988 -0.000589 0.000001 -0.000018 0.000000 0.000000 0.000000 0.000000 0.000000 0.000000 -87.302048 -0.620112 10.647402 -65.385094 5.691833 -6.647753 1.334614 -16.010002 105.642998 24.186205 0.659839 14.632601 -11.438118 1.975063 39.558075 -0.000004 -0.000011 -28.121841 0.000013 -0.000016 -19.577774 0.000033 0.000004 -0.002223 -20.761669 16.258163 -4.434783 -11.504954 -0.170938 3.689279 -11.849276 0.772257 3.373978 0.000008 0.002773 0.000010 -20.213667 6.741226 -5.916804 -11.914718 -0.665864 1.509339 -11.978065 0.264131 1.272654 0.000497 -0.000035 -0.000078 -22.451395 -8.878293 -6.801939 -14.614588 1.465307 -2.186533 -14.369339 -0.377646 -1.662221 -0.000121 0.000010 -0.000010 -19.912218 -25.942980 -9.413074 -14.674628 2.614633 -6.243889 -14.597037 -1.121289 -5.135424 -0.001091 0.000010 -0.000029 0.000000 0.000000 0.000000 0.000000 0.000000 0.000000 -10.505103 9.626754 1.870470 -0.405071 -0.925160 24.365034 4.863004 -3.256348 16.258865 -0.988705 0.973889 -21.259377 0.000000 0.000000 0.000000 0.000000 0.000000 0.000000 0.000000 0.000000 0.000000 0.036228 12.408146 8.520043 0.080002 0.320472 18.091221 1.483565 14.001199 12.904636 0.430756 -1.289223 -17.967165 0.000000 0.000000 0.000000 0.000000 0.000000 0.000000 0.000000 0.000000 0.000000 
10.869766 86.880997 17.275742 0.796892 -6.438077 -13.104989 -1.934795 0.579898 9.447479 0.535974 0.434320 3.191718 1.030684 3.674603 7.143413 0.782048 1.756245 4.033406 -13.525628 8.389273 -0.934956 -0.119710 3.203334 -6.173449 -1.312142 0.366515 -16.609175 0.000000 0.000000 0.000000 83.701073 1.632329 12.560473 63.902439 -17.796898 4.248503 -1.215236 10.808716 99.670341 -18.670023 14.240393 2.055924 12.845430 -1.844231 38.939598 0.000001 -0.000025 -32.684601 -0.000033 0.000027 -22.702913 -0.000009 -0.000010 0.000013 26.175800 16.754717 -4.051270 17.585609 0.209954 -4.958896 17.706312 1.231155 -4.483726 0.000008 -0.000013 0.000002 27.370726 7.118313 -5.093208 18.873919 -0.485695 -2.090115 18.974806 0.458129 -1.707731 -0.000006 0.000049 0.000014 36.579731 -9.427388 -5.121660 24.058645 1.104543 3.058124 23.717024 -0.676469 2.330671 -0.000000 0.001567 -0.000015 42.430996 -26.138380 -6.381924 24.971758 1.342452 9.541443 24.727127 -2.209131 7.894475 -0.000594 0.000003 -0.000018 0.000000 0.000000 0.000000 0.000000 0.000000 0.000000 -87.421432 -0.617931 10.695218 -65.466881 6.528646 -6.749882 1.239788 -16.004189 106.041618 23.764410 0.124953 14.752846 -11.314726 1.965899 39.614441 -0.000003 -0.000011 -27.828415 0.000014 -0.000016 -19.378197 0.000225 0.000002 -0.002236 -19.917105 16.288113 -4.175216 -10.941650 -0.218682 3.536723 -11.307095 0.726826 3.233330 0.000007 0.002695 0.000009 -19.437214 6.750274 -5.770231 -11.362814 -0.685144 1.451515 -11.426524 0.250381 1.224326 0.000471 -0.000036 -0.000086 -21.784210 -8.881382 -6.832818 -14.120493 1.497868 -2.116728 -13.853896 -0.358579 -1.610554 -0.000144 0.000011 -0.000010 -19.228004 -25.945564 -9.723311 -14.339385 2.691032 -6.071087 -14.242089 -1.064446 -4.984981 -0.001010 0.000011 -0.000030 0.000000 0.000000 0.000000 0.000000 0.000000 0.000000 -10.395113 9.630398 1.654362 -0.400218 -0.919853 24.792566 4.760510 -3.213146 16.050161 -0.973360 0.955703 -21.170006 0.000000 0.000000 0.000000 0.000000 0.000000 0.000000 0.000000 0.000000 0.000000 0.130193 12.656079 8.663033 0.083858 0.326766 18.218782 1.362819 14.310472 12.718328 0.455687 -1.292844 -17.937035 0.000000 0.000000 0.000000 0.000000 0.000000 0.000000 0.000000 0.000000 0.000000 
10.910151 86.849930 17.297850 0.787202 -6.759504 -13.301226 -1.863418 0.583132 9.523534 0.469976 0.461208 3.326300 1.049067 3.705909 7.145904 0.814686 1.763660 4.127921 -13.630577 8.653791 -0.843788 -0.080029 3.477629 -6.123090 -1.372752 0.369031 -16.673031 0.000000 0.000000 0.000000 83.805145 1.588001 12.574347 64.112366 -18.213648 4.247251 -1.253148 10.577057 99.827965 -18.820423 14.315474 2.684188 12.428820 -1.813270 39.133961 0.000001 -0.000027 -31.618679 -0.000034 0.000028 -21.972528 -0.000008 -0.000009 0.000013 24.091368 16.894056 -3.257453 16.151955 0.114567 -4.643931 16.262091 1.139741 -4.205372 0.000008 -0.000013 0.000002 25.274733 7.162781 -4.664887 17.394588 -0.525985 -1.971683 17.492434 0.428257 -1.610810 -0.000007 0.000047 0.000014 34.531277 -9.476314 -5.211887 22.538731 1.174298 2.912487 22.185339 -0.635299 2.219200 -0.000000 0.001494 -0.000016 40.821407 -26.224018 -7.034654 23.696896 1.523730 9.164629 23.407228 -2.073406 7.587267 -0.000606 0.000004 -0.000017 0.000000 0.000000 0.000000 0.000000 0.000000 0.000000 -87.642426 -0.594665 10.667377 -65.512726 7.093249 -6.773668 1.133252 -16.046618 106.393471 23.403385 -0.373634 14.902246 -11.168890 1.954615 39.682777 -0.000003 -0.000011 -27.463362 0.000015 -0.000016 -19.131701 0.000385 0.000001 -0.002241 -18.883162 16.315027 -3.900973 -10.222023 -0.279858 3.321936 -10.602445 0.669109 3.034756 0.000007 0.002666 0.000009 -18.485765 6.760603 -5.622709 -10.650670 -0.710307 1.369179 -10.717963 0.232423 1.155997 0.000379 -0.000037 -0.000096 -20.945835 -8.891354 -6.870064 -13.486362 1.539354 -2.016786 -13.191455 -0.334269 -1.535193 -0.000180 0.000012 -0.000009 -18.372978 -25.976414 -10.064032 -13.890729 2.788259 -5.819235 -13.773097 -0.993552 -4.768308 -0.000868 0.000012 -0.000032 0.000000 0.000000 0.000000 0.000000 0.000000 0.000000 -10.309883 9.657915 1.556813 -0.394684 -0.918398 25.015614 4.635452 -3.036386 15.862813 -0.964429 0.937330 -21.093079 0.000000 0.000000 0.000000 0.000000 0.000000 0.000000 0.000000 0.000000 0.000000 0.250769 12.996413 8.907773 0.088169 0.334639 18.217083 1.213326 14.614784 12.596025 0.480811 -1.298630 -17.929564 0.000000 0.000000 0.000000 0.000000 0.000000 0.000000 0.000000 0.000000 0.000000 
10.921685 86.831772 17.335232 0.807224 -7.138852 -13.520960 -1.802824 0.581166 9.580109 0.406293 0.487752 3.456673 1.074707 3.763465 7.162689 0.808840 1.778772 4.249439 -13.664530 8.866907 -0.725183 -0.041618 3.695580 -6.087404 -1.404212 0.379221 -16.803028 0.000000 0.000000 0.000000 83.953369 1.526608 12.548600 64.311684 -18.350266 4.199522 -1.273396 10.457037 100.044739 -19.169252 14.376307 3.455290 11.979074 -1.776997 39.344234 0.000002 -0.000029 -30.454596 -0.000035 0.000028 -21.181311 -0.000008 -0.000009 0.000013 21.864819 17.015539 -2.392350 14.628067 0.010891 -4.289237 14.721295 1.040076 -3.889524 0.000008 -0.000013 0.000003 23.033396 7.200038 -4.184685 15.823672 -0.569786 -1.836555 15.914217 0.395083 -1.500288 -0.000009 0.000043 0.000015 32.341179 -9.515260 -5.276608 20.901598 1.250474 2.745925 20.539871 -0.589535 2.091428 0.000001 0.001389 -0.000018 39.114925 -26.296907 -7.696625 22.327581 1.721504 8.736337 21.996429 -1.924385 7.233779 -0.000623 0.000004 -0.000016 0.000000 0.000000 0.000000 0.000000 0.000000 0.000000 -87.927231 -0.551617 10.558655 -65.587357 7.210067 -6.771052 1.030960 -16.108887 106.865753 23.130161 -0.723187 15.090075 -11.022385 1.943234 39.752304 -0.000003 -0.000011 -27.082384 0.000016 -0.000017 -18.875107 0.000471 -0.000001 -0.002258 -17.812466 16.329124 -3.638636 -9.439132 -0.347925 3.075302 -9.828622 0.605153 2.805261 0.000006 0.002668 0.000008 -17.490915 6.769274 -5.500959 -9.869394 -0.738580 1.273821 -9.944787 0.212291 1.077344 0.000254 -0.000038 -0.000105 -20.029627 -8.905314 -6.941629 -12.789734 1.585190 -1.900835 -12.461635 -0.307204 -1.446308 -0.000218 0.000013 -0.000009 -17.416513 -26.026838 -10.456264 -13.376317 2.896179 -5.522518 -13.237657 -0.915404 -4.514328 -0.000681 0.000012 -0.000034 0.000000 0.000000 0.000000 0.000000 0.000000 0.000000 -10.267816 9.696554 1.566318 -0.389459 -0.920665 25.022955 4.489180 -2.743581 15.744051 -0.962453 0.917789 -21.034407 0.000000 0.000000 0.000000 0.000000 0.000000 0.000000 0.000000 0.000000 0.000000 0.370501 13.415777 9.252996 0.091578 0.340747 18.072998 1.072394 14.910534 12.536366 0.499962 -1.302032 -17.930902 0.000000 0.000000 0.000000 0.000000 0.000000 0.000000 0.000000 0.000000 0.000000 
